#!OML:ASF F:\VICON\USERDATA\INSTALL\rory3\rory3.ASF
:FULLY-SPECIFIED
:DEGREES
349
root 4.82433 16.5172 2.5636 8.84304 -14.9254 -1.75174
lowerback 3.14737 0.318292 -0.00744749
upperback -0.434823 0.405144 -0.847354
thorax -2.20427 0.19684 -0.885401
lowerneck -11.7253 0.309912 -1.25582
upperneck 40.2288 0.559103 0.0544233
head 16.392 -0.0557898 0.313983
rclavicle -1.68967e-015 8.34896e-015
rhumerus -5.92225 29.677 -52.2819
rradius 104.37
rwrist -30.4153
rhand -4.69988 -40.117
rfingers 7.12502
rthumb 21.0817 -68.991
lclavicle -1.68967e-015 8.34896e-015
lhumerus 3.44979 -20.4858 48.2806
lradius 93.866
lwrist 56.104
lhand -21.7392 -26.2752
lfingers 7.12502
lthumb 4.66058 3.65354
rfemur -56.8516 -0.545325 18.6115
rtibia 32.9952
rfoot 37.952 -2.89696
rtoes 8.86959
lfemur -31.7845 4.17261 -29.51
ltibia 47.3194
lfoot -22.5963 7.25246
ltoes 14.9622
350
root 4.82322 16.5132 2.5595 8.86767 -14.8722 -1.91229
lowerback 3.37826 0.30869 0.134452
upperback -0.491961 0.397981 -0.799022
thorax -2.39214 0.19114 -0.916989
lowerneck -11.7713 0.313812 -1.31018
upperneck 40.3014 0.53325 0.174812
head 16.4419 -0.0592566 0.372907
rclavicle -2.51463e-014 -2.26615e-014
rhumerus -6.41019 29.8995 -52.7008
rradius 104.314
rwrist -30.1451
rhand -4.77924 -40.5812
rfingers 7.12502
rthumb 21.0055 -69.4636
lclavicle -2.51463e-014 -2.26615e-014
lhumerus 2.91122 -20.82 48.6853
lradius 93.8015
lwrist 56.11
lhand -21.3604 -27.6969
lfingers 7.12502
lthumb 5.02641 2.22347
rfemur -56.8142 -0.495731 18.7668
rtibia 32.9294
rfoot 38.0093 -2.72317
rtoes 8.73079
lfemur -31.8628 4.23301 -29.3308
ltibia 47.4805
lfoot -22.6668 7.19328
ltoes 13.172
351
root 4.82299 16.5046 2.55624 8.89245 -14.792 -2.02413
lowerback 3.59293 0.306089 0.280966
upperback -0.56649 0.4009 -0.767233
thorax -2.5886 0.189924 -0.968661
lowerneck -11.542 0.29682 -1.32916
upperneck 40.273 0.52377 0.135826
head 16.3696 -0.0709291 0.356762
rclavicle 3.61788e-014 -9.14409e-015
rhumerus -6.93487 30.1434 -53.1042
rradius 104.25
rwrist -29.9953
rhand -5.18677 -40.4862
rfingers 7.12502
rthumb 20.6139 -69.4116
lclavicle 3.61788e-014 -9.14409e-015
lhumerus 2.33981 -21.2509 49.1154
lradius 93.719
lwrist 56.0197
lhand -21.1657 -28.2671
lfingers 7.12502
lthumb 5.21435 1.64871
rfemur -56.8458 -0.527037 18.9186
rtibia 32.94
rfoot 38.0435 -2.29458
rtoes 8.11745
lfemur -31.9763 4.25012 -29.2009
ltibia 47.6368
lfoot -22.7066 7.05104
ltoes 12.7546
352
root 4.82083 16.496 2.55561 8.84203 -14.746 -1.92509
lowerback 3.64513 0.317456 0.216266
upperback -0.462661 0.412591 -0.803067
thorax -2.51112 0.196946 -0.96968
lowerneck -11.4516 0.280067 -1.34237
upperneck 40.1297 0.525171 0.0805617
head 16.2705 -0.0773066 0.33481
rclavicle -2.32578e-014 -1.07344e-014
rhumerus -7.17258 30.218 -53.3779
rradius 104.086
rwrist -29.874
rhand -5.58748 -40.324
rfingers 7.12502
rthumb 20.2289 -69.2907
lclavicle -2.32578e-014 -1.07344e-014
lhumerus 2.13813 -21.5307 49.406
lradius 93.6016
lwrist 55.8242
lhand -21.5592 -27.0997
lfingers 7.12502
lthumb 4.8344 2.82511
rfemur -56.8724 -0.484789 18.7858
rtibia 32.9747
rfoot 38.1075 -2.00132
rtoes 7.71373
lfemur -32.1105 4.28371 -29.3009
ltibia 47.9653
lfoot -22.8773 7.02674
ltoes 12.6488
353
root 4.81688 16.4887 2.55236 8.76227 -14.6574 -1.7242
lowerback 3.77813 0.293386 0.0174024
upperback -0.386504 0.370073 -0.85231
thorax -2.50923 0.178288 -0.906796
lowerneck -11.4724 0.262172 -1.36982
upperneck 40.0263 0.526336 0.0358326
head 16.2209 -0.0853076 0.320413
rclavicle 1.14301e-014 2.78299e-015
rhumerus -7.69439 30.353 -53.6837
rradius 104.059
rwrist -29.9573
rhand -5.90058 -40.3235
rfingers 7.12502
rthumb 19.9279 -69.3217
lclavicle 1.14301e-014 2.78299e-015
lhumerus 1.86459 -21.7485 49.7025
lradius 93.5226
lwrist 55.5619
lhand -21.684 -26.4778
lfingers 7.12502
lthumb 4.71391 3.44974
rfemur -56.9133 -0.390095 18.459
rtibia 33.0726
rfoot 38.1091 -1.94721
rtoes 7.34402
lfemur -32.2283 4.26422 -29.4886
ltibia 48.2759
lfoot -23.0438 7.01846
ltoes 12.1299
354
root 4.79433 16.4377 2.49165 9.01081 -14.5218 -2.06792
lowerback 4.84365 0.266611 -0.0654437
upperback -0.712569 0.329047 -0.651382
thorax -3.44685 0.158388 -0.659652
lowerneck -11.3964 0.253314 -1.31845
upperneck 40.0077 0.555164 -0.112696
head 16.1932 -0.0855768 0.250541
rclavicle 1.77912e-014 1.98785e-015
rhumerus -8.7746 30.588 -54.0964
rradius 104.218
rwrist -30.1211
rhand -5.88706 -40.2184
rfingers 7.12502
rthumb 19.9409 -69.2152
lclavicle 1.77912e-014 1.98785e-015
lhumerus 1.22356 -22.1099 50.1237
lradius 93.5706
lwrist 55.2574
lhand -21.5557 -26.2734
lfingers 7.12502
lthumb 4.83776 3.65136
rfemur -57.4193 0.671905 18.1776
rtibia 33.1741
rfoot 38.2961 -3.43136
rtoes 7.60886
lfemur -33.1241 4.31119 -28.9727
ltibia 48.7017
lfoot -22.745 6.73603
ltoes 11.9776
355
root 4.79096 16.4289 2.47636 9.00338 -14.4536 -2.00248
lowerback 5.11065 0.245718 -0.22267
upperback -0.741436 0.290635 -0.626888
thorax -3.62846 0.142394 -0.544888
lowerneck -11.4106 0.24193 -1.24685
upperneck 40.02 0.5747 -0.257388
head 16.2044 -0.0863644 0.17745
rclavicle -1.91827e-014 8.34896e-015
rhumerus -8.88928 30.7902 -54.2381
rradius 103.84
rwrist -29.7505
rhand -4.86286 -41.0231
rfingers 7.12502
rthumb 20.9252 -69.9145
lclavicle -1.91827e-014 8.34896e-015
lhumerus 0.639497 -22.3562 50.556
lradius 93.6221
lwrist 55.187
lhand -21.432 -25.8964
lfingers 7.12502
lthumb 4.95725 4.02559
rfemur -57.5433 0.85597 17.9227
rtibia 33.3056
rfoot 38.1558 -4.02869
rtoes 8.22449
lfemur -33.266 4.33683 -29.0131
ltibia 48.7513
lfoot -22.6719 6.61748
ltoes 12.7547
